<svg width="36" height="47" viewBox="0 0 36 47" fill="none" xmlns="http://www.w3.org/2000/svg">
<path d="M28.3027 27.2627C27.6961 25.5613 26.3561 24.0587 24.4934 22.9867C22.6307 21.9147 20.3481 21.3333 18.0001 21.3333C15.6521 21.3333 13.3694 21.9147 11.5067 22.9867C9.64405 24.0587 8.30405 25.5613 7.69739 27.2627" stroke="black" stroke-width="2" stroke-linecap="round"/>
<path d="M18.0001 16C20.9456 16 23.3334 13.6122 23.3334 10.6667C23.3334 7.72115 20.9456 5.33333 18.0001 5.33333C15.0546 5.33333 12.6667 7.72115 12.6667 10.6667C12.6667 13.6122 15.0546 16 18.0001 16Z" stroke="black" stroke-width="2" stroke-linecap="round"/>
<path d="M1.05682 44V35.2727H4.10795C4.71591 35.2727 5.21733 35.3778 5.61222 35.5881C6.0071 35.7955 6.30114 36.0753 6.49432 36.4276C6.6875 36.777 6.78409 37.1648 6.78409 37.5909C6.78409 37.9659 6.71733 38.2756 6.58381 38.5199C6.45313 38.7642 6.27983 38.9574 6.06392 39.0994C5.85085 39.2415 5.61932 39.3466 5.36932 39.4148V39.5C5.63636 39.517 5.90483 39.6108 6.17472 39.7812C6.4446 39.9517 6.67045 40.196 6.85227 40.5142C7.03409 40.8324 7.125 41.2216 7.125 41.6818C7.125 42.1193 7.02557 42.5128 6.8267 42.8622C6.62784 43.2116 6.31392 43.4886 5.88494 43.6932C5.45597 43.8977 4.89773 44 4.21023 44H1.05682ZM2.11364 43.0625H4.21023C4.90057 43.0625 5.39063 42.929 5.6804 42.6619C5.97301 42.392 6.11932 42.0653 6.11932 41.6818C6.11932 41.3864 6.04403 41.1136 5.89347 40.8636C5.7429 40.6108 5.52841 40.4091 5.25 40.2585C4.97159 40.1051 4.64205 40.0284 4.26136 40.0284H2.11364V43.0625ZM2.11364 39.108H4.07386C4.39205 39.108 4.67898 39.0455 4.93466 38.9205C5.19318 38.7955 5.39773 38.6193 5.5483 38.392C5.7017 38.1648 5.77841 37.8977 5.77841 37.5909C5.77841 37.2074 5.64489 36.8821 5.37784 36.6151C5.1108 36.3452 4.6875 36.2102 4.10795 36.2102H2.11364V39.108ZM11.3842 44.1364C10.7933 44.1364 10.2749 43.9957 9.82884 43.7145C9.38565 43.4332 9.03906 43.0398 8.78906 42.5341C8.5419 42.0284 8.41832 41.4375 8.41832 40.7614C8.41832 40.0795 8.5419 39.4844 8.78906 38.9759C9.03906 38.4673 9.38565 38.0724 9.82884 37.7912C10.2749 37.5099 10.7933 37.3693 11.3842 37.3693C11.9751 37.3693 12.4922 37.5099 12.9354 37.7912C13.3814 38.0724 13.728 38.4673 13.9751 38.9759C14.2251 39.4844 14.3501 40.0795 14.3501 40.7614C14.3501 41.4375 14.2251 42.0284 13.9751 42.5341C13.728 43.0398 13.3814 43.4332 12.9354 43.7145C12.4922 43.9957 11.9751 44.1364 11.3842 44.1364ZM11.3842 43.233C11.8331 43.233 12.2024 43.1179 12.4922 42.8878C12.782 42.6577 12.9964 42.3551 13.1357 41.9801C13.2749 41.6051 13.3445 41.1989 13.3445 40.7614C13.3445 40.3239 13.2749 39.9162 13.1357 39.5384C12.9964 39.1605 12.782 38.8551 12.4922 38.6222C12.2024 38.3892 11.8331 38.2727 11.3842 38.2727C10.9354 38.2727 10.5661 38.3892 10.2763 38.6222C9.98651 38.8551 9.77202 39.1605 9.63281 39.5384C9.49361 39.9162 9.42401 40.3239 9.42401 40.7614C9.42401 41.1989 9.49361 41.6051 9.63281 41.9801C9.77202 42.3551 9.98651 42.6577 10.2763 42.8878C10.5661 43.1179 10.9354 43.233 11.3842 43.233ZM16.891 42.517L20.0444 37.4545H21.2035V44H20.1978V38.9375L17.0614 44H15.8853V37.4545H16.891V42.517ZM19.3796 35.2727H20.3171C20.3171 35.733 20.158 36.1094 19.8398 36.402C19.5217 36.6946 19.0898 36.8409 18.5444 36.8409C18.0075 36.8409 17.5799 36.6946 17.2617 36.402C16.9464 36.1094 16.7887 35.733 16.7887 35.2727H17.7262C17.7262 35.4943 17.7873 35.6889 17.9094 35.8565C18.0344 36.0241 18.2461 36.108 18.5444 36.108C18.8427 36.108 19.0558 36.0241 19.1836 35.8565C19.3143 35.6889 19.3796 35.4943 19.3796 35.2727ZM22.1548 38.392V37.4545H27.473V38.392H25.3253V44H24.3196V38.392H22.1548ZM29.9457 42.517L33.0991 37.4545H34.2582V44H33.2525V38.9375L30.1161 44H28.94V37.4545H29.9457V42.517Z" fill="black"/>
</svg>
