<svg width="49" height="41" viewBox="0 0 49 41" fill="none" xmlns="http://www.w3.org/2000/svg">
<path d="M25.8126 12.1875V17.875C25.8126 18.0905 25.727 18.2972 25.5746 18.4495C25.4222 18.6019 25.2155 18.6875 25.0001 18.6875C24.7846 18.6875 24.5779 18.6019 24.4255 18.4495C24.2732 18.2972 24.1876 18.0905 24.1876 17.875V12.1875C24.1876 11.972 24.2732 11.7654 24.4255 11.613C24.5779 11.4606 24.7846 11.375 25.0001 11.375C25.2155 11.375 25.4222 11.4606 25.5746 11.613C25.727 11.7654 25.8126 11.972 25.8126 12.1875ZM29.5541 12.1063L28.9854 17.7938C28.9741 17.9002 28.984 18.0079 29.0146 18.1105C29.0451 18.2132 29.0956 18.3088 29.1631 18.3918C29.2307 18.4749 29.314 18.5438 29.4083 18.5945C29.5026 18.6452 29.606 18.6769 29.7126 18.6875C29.74 18.6891 29.7674 18.6891 29.7948 18.6875C29.9961 18.6873 30.1901 18.6123 30.3392 18.4772C30.4884 18.3421 30.5821 18.1565 30.6022 17.9563L31.171 12.2688C31.1925 12.0543 31.128 11.8402 30.9917 11.6733C30.8553 11.5065 30.6582 11.4006 30.4438 11.3791C30.2294 11.3575 30.0152 11.422 29.8484 11.5584C29.6815 11.6948 29.5757 11.8918 29.5541 12.1063ZM20.446 12.1063C20.4244 11.8918 20.3186 11.6948 20.1518 11.5584C19.9849 11.422 19.7707 11.3575 19.5563 11.3791C19.3419 11.4006 19.1448 11.5065 19.0085 11.6733C18.8721 11.8402 18.8076 12.0543 18.8291 12.2688L19.3979 17.9563C19.4181 18.1574 19.5125 18.3437 19.6628 18.4789C19.813 18.6142 20.0082 18.6885 20.2104 18.6875C20.2378 18.6891 20.2652 18.6891 20.2926 18.6875C20.3988 18.6768 20.5018 18.6454 20.5958 18.5949C20.6898 18.5444 20.773 18.4759 20.8405 18.3933C20.908 18.3106 20.9586 18.2155 20.9894 18.1134C21.0201 18.0112 21.0305 17.904 21.0198 17.7978L20.446 12.1063ZM36.3679 9.04516L34.8374 20.5278C34.784 20.9175 34.5916 21.2748 34.2956 21.5338C33.9996 21.7929 33.62 21.9362 33.2266 21.9375H16.7735C16.3802 21.9362 16.0005 21.7929 15.7045 21.5338C15.4085 21.2748 15.2161 20.9175 15.1627 20.5278L13.6322 9.04516C13.6168 8.93038 13.6262 8.81365 13.6596 8.70279C13.6931 8.59193 13.7498 8.4895 13.8261 8.40237C13.9024 8.31524 13.9964 8.24541 14.1018 8.19758C14.2073 8.14974 14.3218 8.12499 14.4376 8.125H18.9439L24.3907 1.90227C24.4669 1.81581 24.5607 1.74657 24.6658 1.69914C24.7708 1.65171 24.8848 1.62719 25.0001 1.62719C25.1153 1.62719 25.2293 1.65171 25.3343 1.69914C25.4394 1.74657 25.5332 1.81581 25.6094 1.90227L31.0562 8.125H35.5626C35.6784 8.12499 35.7928 8.14974 35.8983 8.19758C36.0037 8.24541 36.0977 8.31524 36.174 8.40237C36.2503 8.4895 36.307 8.59193 36.3405 8.70279C36.3739 8.81365 36.3833 8.93038 36.3679 9.04516ZM21.1031 8.125H28.897L25.0001 3.67149L21.1031 8.125ZM34.6343 9.75H15.3658L16.7735 20.3125H33.2266L34.6343 9.75Z" fill="black"/>
<path d="M6.1875 38L3.1875 33.9943H2.11364V38H1.05682V29.2727H2.11364V33.0568H2.57386L6.06818 29.2727H7.32955L3.80114 33.108L7.44886 38H6.1875ZM10.8569 38.1364C10.266 38.1364 9.74751 37.9957 9.30149 37.7145C8.85831 37.4332 8.51172 37.0398 8.26172 36.5341C8.01456 36.0284 7.89098 35.4375 7.89098 34.7614C7.89098 34.0795 8.01456 33.4844 8.26172 32.9759C8.51172 32.4673 8.85831 32.0724 9.30149 31.7912C9.74751 31.5099 10.266 31.3693 10.8569 31.3693C11.4478 31.3693 11.9648 31.5099 12.408 31.7912C12.854 32.0724 13.2006 32.4673 13.4478 32.9759C13.6978 33.4844 13.8228 34.0795 13.8228 34.7614C13.8228 35.4375 13.6978 36.0284 13.4478 36.5341C13.2006 37.0398 12.854 37.4332 12.408 37.7145C11.9648 37.9957 11.4478 38.1364 10.8569 38.1364ZM10.8569 37.233C11.3058 37.233 11.6751 37.1179 11.9648 36.8878C12.2546 36.6577 12.4691 36.3551 12.6083 35.9801C12.7475 35.6051 12.8171 35.1989 12.8171 34.7614C12.8171 34.3239 12.7475 33.9162 12.6083 33.5384C12.4691 33.1605 12.2546 32.8551 11.9648 32.6222C11.6751 32.3892 11.3058 32.2727 10.8569 32.2727C10.408 32.2727 10.0387 32.3892 9.74893 32.6222C9.45916 32.8551 9.24467 33.1605 9.10547 33.5384C8.96626 33.9162 8.89666 34.3239 8.89666 34.7614C8.89666 35.1989 8.96626 35.6051 9.10547 35.9801C9.24467 36.3551 9.45916 36.6577 9.74893 36.8878C10.0387 37.1179 10.408 37.233 10.8569 37.233ZM15.358 40.4545V31.4545H16.3295V32.4943H16.4489C16.5227 32.3807 16.625 32.2358 16.7557 32.0597C16.8892 31.8807 17.0795 31.7216 17.3267 31.5824C17.5767 31.4403 17.9148 31.3693 18.3409 31.3693C18.892 31.3693 19.3778 31.5071 19.7983 31.7827C20.2188 32.0582 20.5469 32.4489 20.7827 32.9545C21.0185 33.4602 21.1364 34.0568 21.1364 34.7443C21.1364 35.4375 21.0185 36.0384 20.7827 36.5469C20.5469 37.0526 20.2202 37.4446 19.8026 37.723C19.3849 37.9986 18.9034 38.1364 18.358 38.1364C17.9375 38.1364 17.6009 38.0668 17.348 37.9276C17.0952 37.7855 16.9006 37.625 16.7642 37.446C16.6278 37.2642 16.5227 37.1136 16.4489 36.9943H16.3636V40.4545H15.358ZM16.3466 34.7273C16.3466 35.2216 16.419 35.6577 16.5639 36.0355C16.7088 36.4105 16.9205 36.7045 17.1989 36.9176C17.4773 37.1278 17.8182 37.233 18.2216 37.233C18.642 37.233 18.9929 37.1222 19.2741 36.9006C19.5582 36.6761 19.7713 36.375 19.9134 35.9972C20.0582 35.6165 20.1307 35.1932 20.1307 34.7273C20.1307 34.267 20.0597 33.8523 19.9176 33.483C19.7784 33.1108 19.5668 32.8168 19.2827 32.6009C19.0014 32.3821 18.6477 32.2727 18.2216 32.2727C17.8125 32.2727 17.4688 32.3764 17.1903 32.5838C16.9119 32.7884 16.7017 33.0753 16.5597 33.4446C16.4176 33.8111 16.3466 34.2386 16.3466 34.7273ZM22.2614 36.3295H23.3352C23.358 36.625 23.4915 36.8494 23.7358 37.0028C23.983 37.1562 24.304 37.233 24.6989 37.233C25.1023 37.233 25.4474 37.1506 25.7344 36.9858C26.0213 36.8182 26.1648 36.5483 26.1648 36.1761C26.1648 35.9574 26.1108 35.767 26.0028 35.6051C25.8949 35.4403 25.7429 35.3125 25.5469 35.2216C25.3509 35.1307 25.1193 35.0852 24.8523 35.0852H23.7273V34.1818H24.8523C25.2528 34.1818 25.5483 34.0909 25.7386 33.9091C25.9318 33.7273 26.0284 33.5 26.0284 33.2273C26.0284 32.9347 25.9247 32.7003 25.7173 32.5241C25.5099 32.3452 25.2159 32.2557 24.8352 32.2557C24.4517 32.2557 24.1321 32.3423 23.8764 32.5156C23.6207 32.6861 23.4858 32.9062 23.4716 33.1761H22.4148C22.4261 32.8239 22.5341 32.5128 22.7386 32.2429C22.9432 31.9702 23.2216 31.7571 23.5739 31.6037C23.9261 31.4474 24.3295 31.3693 24.7841 31.3693C25.2443 31.3693 25.6435 31.4503 25.9815 31.6122C26.3224 31.7713 26.5852 31.9886 26.7699 32.2642C26.9574 32.5369 27.0511 32.8466 27.0511 33.1932C27.0511 33.5625 26.9474 33.8608 26.7401 34.0881C26.5327 34.3153 26.2727 34.4773 25.9602 34.5739V34.642C26.2074 34.6591 26.4219 34.7386 26.6037 34.8807C26.7884 35.0199 26.9318 35.2031 27.0341 35.4304C27.1364 35.6548 27.1875 35.9034 27.1875 36.1761C27.1875 36.5739 27.081 36.9205 26.8679 37.2159C26.6548 37.5085 26.3622 37.7358 25.9901 37.8977C25.6179 38.0568 25.1932 38.1364 24.7159 38.1364C24.2528 38.1364 23.8381 38.0611 23.4716 37.9105C23.1051 37.7571 22.8139 37.5455 22.598 37.2756C22.3849 37.0028 22.2727 36.6875 22.2614 36.3295ZM29.6058 36.517L32.7592 31.4545H33.9183V38H32.9126V32.9375L29.7763 38H28.6001V31.4545H29.6058V36.517ZM40.141 34.267V35.2045H36.5273V34.267H40.141ZM36.766 31.4545V38H35.7603V31.4545H36.766ZM40.908 31.4545V38H39.9023V31.4545H40.908ZM44.6708 38.1534C44.256 38.1534 43.8796 38.0753 43.5415 37.919C43.2035 37.7599 42.935 37.5312 42.7362 37.233C42.5373 36.9318 42.4379 36.5682 42.4379 36.142C42.4379 35.767 42.5117 35.4631 42.6594 35.2301C42.8072 34.9943 43.0046 34.8097 43.2518 34.6761C43.4989 34.5426 43.7717 34.4432 44.07 34.3778C44.3711 34.3097 44.6737 34.2557 44.9776 34.2159C45.3754 34.1648 45.6978 34.1264 45.945 34.1009C46.195 34.0724 46.3768 34.0256 46.4904 33.9602C46.6069 33.8949 46.6651 33.7812 46.6651 33.6193V33.5852C46.6651 33.1648 46.5501 32.8381 46.32 32.6051C46.0927 32.3722 45.7475 32.2557 45.2844 32.2557C44.8043 32.2557 44.4279 32.3608 44.1552 32.571C43.8825 32.7812 43.6907 33.0057 43.5799 33.2443L42.6254 32.9034C42.7958 32.5057 43.0231 32.196 43.3072 31.9744C43.5941 31.75 43.9066 31.5937 44.2447 31.5057C44.5856 31.4148 44.9208 31.3693 45.2504 31.3693C45.4606 31.3693 45.7021 31.3949 45.9748 31.446C46.2504 31.4943 46.516 31.5952 46.7717 31.7486C47.0302 31.902 47.2447 32.1335 47.4151 32.4432C47.5856 32.7528 47.6708 33.1676 47.6708 33.6875V38H46.6651V37.1136H46.614C46.5458 37.2557 46.4322 37.4077 46.2731 37.5696C46.114 37.7315 45.9023 37.8693 45.6381 37.983C45.3739 38.0966 45.0515 38.1534 44.6708 38.1534ZM44.8242 37.25C45.2219 37.25 45.5572 37.1719 45.8299 37.0156C46.1055 36.8594 46.3129 36.6577 46.4521 36.4105C46.5941 36.1634 46.6651 35.9034 46.6651 35.6307V34.7102C46.6225 34.7614 46.5288 34.8082 46.3839 34.8509C46.2418 34.8906 46.0771 34.9261 45.8896 34.9574C45.7049 34.9858 45.5245 35.0114 45.3484 35.0341C45.1751 35.054 45.0344 35.071 44.9265 35.0852C44.6651 35.1193 44.4208 35.1747 44.1935 35.2514C43.9691 35.3253 43.7873 35.4375 43.6481 35.5881C43.5117 35.7358 43.4435 35.9375 43.4435 36.1932C43.4435 36.5426 43.5728 36.8068 43.8313 36.9858C44.0927 37.1619 44.4237 37.25 44.8242 37.25Z" fill="black"/>
</svg>
