<svg width="20" height="20" viewBox="0 0 20 20" fill="none" xmlns="http://www.w3.org/2000/svg">
<path d="M18.9796 17.5204L14.8984 13.4375C16.1221 11.8429 16.6934 9.84255 16.4964 7.84223C16.2995 5.8419 15.349 3.99139 13.8378 2.66608C12.3267 1.34077 10.368 0.639901 8.35903 0.705649C6.35011 0.771396 4.44141 1.59884 3.02013 3.02012C1.59884 4.4414 0.771404 6.3501 0.705656 8.35902C0.639909 10.3679 1.34078 12.3267 2.66609 13.8378C3.9914 15.349 5.84191 16.2995 7.84224 16.4964C9.84256 16.6934 11.8429 16.1221 13.4375 14.8984L17.5221 18.9839C17.618 19.0798 17.7319 19.1559 17.8573 19.2078C17.9826 19.2598 18.1169 19.2865 18.2526 19.2865C18.3882 19.2865 18.5226 19.2598 18.6479 19.2078C18.7732 19.1559 18.8871 19.0798 18.9831 18.9839C19.079 18.888 19.1551 18.7741 19.207 18.6488C19.2589 18.5234 19.2856 18.3891 19.2856 18.2534C19.2856 18.1178 19.2589 17.9834 19.207 17.8581C19.1551 17.7328 19.079 17.6189 18.9831 17.523L18.9796 17.5204ZM2.78125 8.625C2.78125 7.46921 3.12398 6.33938 3.7661 5.37838C4.40822 4.41738 5.32089 3.66838 6.3887 3.22608C7.4565 2.78378 8.63149 2.66805 9.76507 2.89353C10.8986 3.11901 11.9399 3.67558 12.7572 4.49284C13.5744 5.3101 14.131 6.35136 14.3565 7.48494C14.582 8.61851 14.4662 9.7935 14.0239 10.8613C13.5816 11.9291 12.8326 12.8418 11.8716 13.4839C10.9106 14.126 9.78079 14.4687 8.62501 14.4687C7.07563 14.4672 5.59018 13.851 4.49461 12.7554C3.39904 11.6598 2.78285 10.1744 2.78125 8.625Z" fill="white"/>
</svg>
