<svg width="87" height="87" viewBox="0 0 87 87" fill="none" xmlns="http://www.w3.org/2000/svg">
<path d="M40.8491 0.814453L38.0846 7.12646C36.6535 7.21367 35.2297 7.39387 33.822 7.66594L29.593 2.20509L25.035 3.75485L25.0123 10.7026C23.0814 11.6951 21.231 12.895 19.4831 14.2955L13.0412 11.395L9.74318 14.903L13.041 21.1582C11.9889 22.6581 11.0643 24.2436 10.2768 25.8979L3.20412 26.0908L1.76807 30.6827L7.47848 34.8891C7.20512 36.5929 7.07161 38.3145 7.06398 40.0376L0.723633 43.2502L1.38771 48.0183L8.34691 49.3806C8.76315 50.8372 9.27901 52.2634 9.89085 53.6492L5.30461 59.3427L7.86447 63.418L14.9939 61.7492C15.445 62.2801 15.9125 62.7968 16.3958 63.2986C17.4049 64.3428 18.48 65.3211 19.6144 66.2276L18.2294 73.3684L22.3959 75.7752L27.8393 71.0354C29.3969 71.6615 31.0005 72.1663 32.6359 72.5452L34.4127 79.5213L39.2089 79.9131L42.0925 73.3341C44.0851 73.2142 46.0711 72.9163 48.0241 72.4372L52.6051 77.7447L57.0722 75.9566L56.9414 73.266L46.5141 65.3592C43.4786 66.1266 40.3307 66.332 37.239 65.9833C31.4712 65.333 25.9283 62.7283 21.5783 58.2298C11.6357 47.9464 11.92 31.5885 22.2028 21.6463C27.1834 16.8304 33.5899 14.3874 40.0036 14.3182C46.8315 14.2444 53.6655 16.8604 58.7921 22.1627C67.1358 30.7928 68.2731 43.7752 62.3454 53.6038L68.1525 58.0085C68.8746 56.8764 69.5267 55.7011 70.1051 54.4893L77.1264 54.2962L78.5625 49.7043L72.8922 45.5266C73.1659 43.8088 73.3044 42.0722 73.3063 40.3327L79.6071 37.1313L78.9432 32.3632L71.99 31.0009C71.4048 28.9868 70.6294 27.0329 69.674 25.1657L73.8173 19.427L71.0472 15.4932L64.2248 17.4742C64.1391 17.3833 64.0559 17.2913 63.9691 17.2017C62.8951 16.0907 61.7458 15.055 60.5294 14.1022L61.835 7.35878L57.668 4.95223L52.4912 9.45946C50.8154 8.78503 49.0942 8.26008 47.3484 7.8701L45.6514 1.20607L40.8491 0.814453ZM30.2856 28.6963C28.4068 28.7177 26.5444 29.1791 24.8364 30.0186L33.0502 36.2514C35.5343 38.1361 36.2389 41.7179 34.3326 44.2322C32.4257 46.7479 28.7642 47.1261 26.2441 45.2145L18.0362 38.9875C17.1957 43.4909 18.7872 48.2626 22.6851 51.2199C26.1807 53.8713 30.6671 54.3677 34.5317 52.9796L35.3999 52.6672L36.1319 53.2236L60.6879 71.8534L61.4199 72.4096L61.3575 73.3292C61.0601 77.4252 62.7361 81.6138 66.2334 84.2671C70.1314 87.2242 75.1601 87.4694 79.2716 85.4477L71.064 79.2211C68.5439 77.3091 67.9249 73.6799 69.8324 71.1664C71.7397 68.6525 75.3792 68.3682 77.864 70.2524L86.072 76.4796C86.9105 71.9778 85.3255 67.2037 81.4287 64.2472C77.9207 61.5847 73.4698 61.0572 69.6279 62.4248L68.7651 62.7314L68.0331 62.175L43.4771 43.5456L42.7451 42.9892L42.8076 42.0756C43.0891 38.0092 41.3817 33.8665 37.8748 31.2053C35.5963 29.4768 32.9302 28.6663 30.2858 28.6965L30.2856 28.6963ZM38.1985 45.0894L67.9648 67.6753L65.9155 70.3828L36.1436 47.7913L38.1985 45.0894Z" fill="#DB3D3D"/>
</svg>
