<svg width="96" height="96" viewBox="0 0 96 96" fill="none" xmlns="http://www.w3.org/2000/svg">
<path fill-rule="evenodd" clip-rule="evenodd" d="M47.8371 95.6742C21.4161 95.6742 0 74.2581 0 47.8371C0 21.4161 21.4161 0 47.8371 0C74.2581 0 95.6742 21.4161 95.6742 47.8371C95.6742 74.2581 74.2581 95.6742 47.8371 95.6742ZM31.3931 45.5588V50.9644H36.6671V58.7619H31.3931V63.8595H36.6671V74.7454H42.6109V63.8595H54.5701V58.7619H42.6109V50.9644H50.1123C52.3974 50.9798 54.6728 50.6677 56.8693 50.0376C58.9502 49.4197 60.7581 48.4799 62.2928 47.2182C63.8296 45.9605 65.0435 44.3779 65.9344 42.4704C66.8254 40.5668 67.2709 38.3275 67.2709 35.7522C67.2709 33.181 66.8503 30.9685 66.0092 29.1148C65.1661 27.2612 64.002 25.7294 62.5171 24.5195C60.2897 22.7047 59.2492 22.4087 57.1683 21.8167C54.9185 21.2014 52.594 20.9026 50.2618 20.9287H36.6671V45.5588H31.3931ZM50.2588 45.5588H42.6109V26.3343H50.2618C53.6762 26.3343 56.362 27.0808 58.3194 28.5737C60.2767 30.0666 61.2554 32.4594 61.2554 35.7522C61.2554 39.047 60.2767 41.5056 58.3194 43.1281C56.362 44.7486 53.6762 45.5588 50.2618 45.5588H50.2588Z" fill="#DB3D3D"/>
</svg>
