<svg width="91" height="81" viewBox="0 0 91 81" fill="none" xmlns="http://www.w3.org/2000/svg">
<path d="M41.0416 80.625V71.7083H76.7083V40.0542C76.7083 31.3604 73.6811 23.9863 67.6267 17.9319C61.5723 11.8775 54.1967 8.84881 45.5 8.84583C36.8032 8.84286 29.4292 11.8716 23.3777 17.9319C17.3263 23.9923 14.2976 31.3664 14.2916 40.0542V67.25H9.83329C7.38121 67.25 5.28282 66.3777 3.53813 64.633C1.79343 62.8883 0.919598 60.7884 0.916626 58.3333V49.4167C0.916626 47.8563 1.30747 46.3895 2.08917 45.0163C2.87086 43.6431 3.96613 42.5464 5.37496 41.726L5.70934 35.8188C6.30378 30.766 7.77206 26.0847 10.1142 21.775C12.4563 17.4653 15.3914 13.7128 18.9194 10.5177C22.4474 7.32257 26.4956 4.83333 31.0639 3.05C35.6322 1.26667 40.4442 0.375 45.5 0.375C50.5557 0.375 55.3484 1.26667 59.8781 3.05C64.4078 4.83333 68.4574 7.30474 72.0271 10.4642C75.5967 13.6237 78.5318 17.3568 80.8323 21.6635C83.1328 25.9703 84.6189 30.6515 85.2906 35.7073L85.625 41.5031C87.0368 42.1719 88.1335 43.175 88.9152 44.5125C89.6969 45.85 90.0863 47.2618 90.0833 48.7479V59.0021C90.0833 60.4882 89.6939 61.9 88.9152 63.2375C88.1365 64.575 87.0397 65.5781 85.625 66.2469V71.7083C85.625 74.1604 84.7526 76.2603 83.0079 78.008C81.2632 79.7556 79.1634 80.628 76.7083 80.625H41.0416ZM32.125 49.4167C30.8618 49.4167 29.8037 48.9887 28.9506 48.1327C28.0976 47.2767 27.6696 46.2186 27.6666 44.9583C27.6637 43.6981 28.0917 42.64 28.9506 41.784C29.8096 40.928 30.8677 40.5 32.125 40.5C33.3822 40.5 34.4418 40.928 35.3038 41.784C36.1657 42.64 36.5922 43.6981 36.5833 44.9583C36.5744 46.2186 36.1464 47.2782 35.2993 48.1371C34.4522 48.9961 33.3941 49.4226 32.125 49.4167ZM58.875 49.4167C57.6118 49.4167 56.5537 48.9887 55.7006 48.1327C54.8476 47.2767 54.4196 46.2186 54.4166 44.9583C54.4137 43.6981 54.8417 42.64 55.7006 41.784C56.5596 40.928 57.6177 40.5 58.875 40.5C60.1322 40.5 61.1918 40.928 62.0538 41.784C62.9157 42.64 63.3422 43.6981 63.3333 44.9583C63.3244 46.2186 62.8964 47.2782 62.0493 48.1371C61.2022 48.9961 60.1441 49.4226 58.875 49.4167ZM18.8614 42.5063C18.3413 34.6299 20.7191 27.8681 25.9948 22.2208C31.2704 16.5736 37.8465 13.75 45.7229 13.75C52.3361 13.75 58.1512 15.8484 63.1683 20.0452C68.1855 24.2419 71.2127 29.6128 72.25 36.1576C65.4882 36.0803 59.2658 34.2583 53.5829 30.6917C47.9 27.125 43.5338 22.2951 40.4843 16.2021C39.2955 22.1465 36.7884 27.4415 32.9631 32.0871C29.1379 36.7327 24.4373 40.2057 18.8614 42.5063Z" fill="#DB3D3D"/>
</svg>
