<svg width="43" height="43" viewBox="0 0 43 43" fill="none" xmlns="http://www.w3.org/2000/svg">
<g clip-path="url(#clip0_63_66)">
<path d="M21.5 0C15.7991 0 10.3267 2.26657 6.29883 6.29715C2.26681 10.3293 0.00115377 15.7977 0 21.5C0 27.1999 2.26758 32.6723 6.29883 36.7029C10.3267 40.7334 15.7991 43 21.5 43C27.2009 43 32.6733 40.7334 36.7012 36.7029C40.7324 32.6723 43 27.1999 43 21.5C43 15.8001 40.7324 10.3277 36.7012 6.29715C32.6733 2.26657 27.2009 0 21.5 0Z" fill="url(#paint0_linear_63_66)"/>
<path d="M9.73213 21.2728C16.0007 18.5423 20.1798 16.7422 22.2693 15.8723C28.2423 13.3887 29.4819 12.9574 30.2915 12.9428C30.4696 12.9399 30.866 12.9839 31.1246 13.193C31.3396 13.3694 31.4001 13.6079 31.4303 13.7754C31.4572 13.9427 31.4942 14.324 31.4639 14.6216C31.1414 18.0213 29.7406 26.2712 29.0284 30.0791C28.7294 31.6903 28.1348 32.2304 27.5603 32.2832C26.3106 32.3981 25.3633 31.4581 24.1539 30.6656C22.2626 29.425 21.1943 28.653 19.3567 27.4427C17.2336 26.0438 18.611 25.2749 19.8203 24.0184C20.1361 23.6896 25.6388 18.6858 25.7429 18.2319C25.7564 18.1751 25.7698 17.9635 25.6421 17.852C25.5178 17.7401 25.3331 17.7784 25.1987 17.8086C25.0072 17.8516 21.9871 19.8498 16.1284 23.8028C15.2717 24.392 14.4957 24.6792 13.797 24.6641C13.031 24.6477 11.5529 24.2301 10.4544 23.8733C9.11065 23.4356 8.03901 23.2041 8.13307 22.4607C8.1801 22.0737 8.71424 21.6776 9.73213 21.2728Z" fill="white"/>
</g>
<defs>
<linearGradient id="paint0_linear_63_66" x1="2150" y1="0" x2="2150" y2="4300" gradientUnits="userSpaceOnUse">
<stop stop-color="#2AABEE"/>
<stop offset="1" stop-color="#229ED9"/>
</linearGradient>
<clipPath id="clip0_63_66">
<rect width="43" height="43" fill="white"/>
</clipPath>
</defs>
</svg>
