<svg width="43" height="43" viewBox="0 0 43 43" fill="none" xmlns="http://www.w3.org/2000/svg">
<path d="M3.1175 3.1175C0.125001 6.1385 0.125 10.9693 0.125 20.645V22.355C0.125 32.0165 0.125001 36.8472 3.1175 39.8825C6.1385 42.875 10.9693 42.875 20.645 42.875H22.355C32.0165 42.875 36.8472 42.875 39.8825 39.8825C42.875 36.8615 42.875 32.0307 42.875 22.355V20.645C42.875 10.9835 42.875 6.15275 39.8825 3.1175C36.8615 0.125001 32.0307 0.125 22.355 0.125H20.645C10.9835 0.125 6.15275 0.125001 3.1175 3.1175ZM7.3355 13.1352H12.2375C12.3943 21.2862 15.9853 24.7347 18.8353 25.4472V13.1352H23.438V20.1605C26.2453 19.8612 29.2093 16.655 30.2068 13.121H34.7952C34.4208 14.9503 33.6734 16.6827 32.5995 18.2102C31.5256 19.7377 30.1484 21.0273 28.5538 21.9988C30.3337 22.8843 31.9055 24.1373 33.1656 25.6749C34.4257 27.2126 35.3454 29 35.864 30.9192H30.8053C29.7222 27.542 27.0147 24.92 23.438 24.5637V30.9192H22.868C13.121 30.9192 7.5635 24.2502 7.3355 13.1352Z" fill="#0077FF"/>
</svg>
