<svg width="105" height="77" viewBox="0 0 105 77" fill="none" xmlns="http://www.w3.org/2000/svg">
<path d="M80.75 69.1041C84.6579 69.1041 87.8125 65.9495 87.8125 62.0416C87.8125 58.1337 84.6579 54.9791 80.75 54.9791C76.8421 54.9791 73.6875 58.1337 73.6875 62.0416C73.6875 65.9495 76.8421 69.1041 80.75 69.1041ZM87.8125 26.7291H76.0416V38.4999H97.0408L87.8125 26.7291ZM24.25 69.1041C28.1579 69.1041 31.3125 65.9495 31.3125 62.0416C31.3125 58.1337 28.1579 54.9791 24.25 54.9791C20.3421 54.9791 17.1875 58.1337 17.1875 62.0416C17.1875 65.9495 20.3421 69.1041 24.25 69.1041ZM90.1666 19.6666L104.292 38.4999V62.0416H94.875C94.875 69.8574 88.5658 76.1666 80.75 76.1666C72.9341 76.1666 66.625 69.8574 66.625 62.0416H38.375C38.375 69.8574 32.0658 76.1666 24.25 76.1666C16.4341 76.1666 10.125 69.8574 10.125 62.0416H0.708313V10.2499C0.708313 5.02367 4.89873 0.833252 10.125 0.833252H76.0416V19.6666H90.1666ZM10.125 10.2499V52.6249H13.7033C16.2929 49.7528 20.0596 47.9166 24.25 47.9166C28.4404 47.9166 32.2071 49.7528 34.7966 52.6249H66.625V10.2499H10.125ZM43.0833 14.9583L59.5625 31.4374L43.0833 47.9166V36.1458H19.5416V26.7291H43.0833V14.9583Z" fill="#DB3D3D"/>
</svg>
