<svg width="43" height="42" viewBox="0 0 43 42" fill="none" xmlns="http://www.w3.org/2000/svg">
<path d="M23.255 3.348C22.1284 2.89731 20.8715 2.89731 19.745 3.348L11.973 6.45975C11.5976 6.60989 11.2757 6.86898 11.0488 7.20366C10.8219 7.53833 10.7004 7.93327 10.7 8.3376V18.6597C10.6999 19.0645 10.8211 19.46 11.0481 19.7952C11.275 20.1304 11.5972 20.3899 11.973 20.5402L19.745 23.6493C20.8715 24.1 22.1284 24.1 23.255 23.6493L31.0269 20.5402C31.4028 20.3899 31.7249 20.1304 31.9518 19.7952C32.1788 19.46 32.3 19.0645 32.3 18.6597V8.3376C32.2997 7.93304 32.1784 7.53781 31.9515 7.20287C31.7246 6.86792 31.4025 6.60863 31.0269 6.4584L23.255 3.348ZM20.2472 4.6035C21.0518 4.28163 21.9494 4.28163 22.7541 4.6035L29.8078 7.425L26.7312 8.6535L18.4233 5.3325L20.2472 4.6035ZM16.6062 6.05745L24.9141 9.3798L21.5 10.7473L13.1921 7.42365L16.6062 6.05745ZM22.175 11.9299L30.95 8.41995V18.6583C30.9502 18.7934 30.9099 18.9254 30.8344 19.0373C30.7588 19.1492 30.6514 19.2359 30.5261 19.2861L22.7541 22.3951C22.5651 22.4698 22.3721 22.5274 22.175 22.5679V11.9299ZM20.825 11.9299V22.5679C20.6276 22.5277 20.4342 22.4699 20.2472 22.3951L12.4739 19.2861C12.3487 19.236 12.2415 19.1495 12.1659 19.0378C12.0904 18.9262 12.05 18.7945 12.05 18.6597V8.4213L20.825 11.9299Z" fill="black"/>
<path d="M3.85227 39.1193C3.28977 39.1193 2.78835 39.0227 2.34801 38.8295C1.91051 38.6364 1.5625 38.3679 1.30398 38.0241C1.0483 37.6776 0.909091 37.2756 0.886364 36.8182H1.96023C1.98295 37.0994 2.07955 37.3423 2.25 37.5469C2.42045 37.7486 2.64347 37.9048 2.91903 38.0156C3.1946 38.1264 3.5 38.1818 3.83523 38.1818C4.21023 38.1818 4.54261 38.1165 4.83239 37.9858C5.12216 37.8551 5.34943 37.6733 5.5142 37.4403C5.67898 37.2074 5.76136 36.9375 5.76136 36.6307C5.76136 36.3097 5.68182 36.027 5.52273 35.7827C5.36364 35.5355 5.13068 35.3423 4.82386 35.2031C4.51705 35.0639 4.14205 34.9943 3.69886 34.9943H3V34.0568H3.69886C4.04545 34.0568 4.34943 33.9943 4.6108 33.8693C4.875 33.7443 5.08097 33.5682 5.22869 33.3409C5.37926 33.1136 5.45455 32.8466 5.45455 32.5398C5.45455 32.2443 5.3892 31.9872 5.25852 31.7685C5.12784 31.5497 4.94318 31.3793 4.70455 31.2571C4.46875 31.1349 4.19034 31.0739 3.86932 31.0739C3.56818 31.0739 3.28409 31.1293 3.01705 31.2401C2.75284 31.348 2.53693 31.5057 2.36932 31.7131C2.2017 31.9176 2.1108 32.1648 2.09659 32.4545H1.07386C1.09091 31.9972 1.22869 31.5966 1.48722 31.2528C1.74574 30.9062 2.08381 30.6364 2.50142 30.4432C2.92188 30.25 3.38352 30.1534 3.88636 30.1534C4.42614 30.1534 4.8892 30.2628 5.27557 30.4815C5.66193 30.6974 5.95881 30.983 6.16619 31.3381C6.37358 31.6932 6.47727 32.0767 6.47727 32.4886C6.47727 32.9801 6.34801 33.3991 6.08949 33.7457C5.83381 34.0923 5.4858 34.3324 5.04545 34.4659V34.5341C5.59659 34.625 6.02699 34.8594 6.33665 35.2372C6.64631 35.6122 6.80114 36.0767 6.80114 36.6307C6.80114 37.1051 6.67188 37.5312 6.41335 37.9091C6.15767 38.2841 5.80824 38.5795 5.36506 38.7955C4.92188 39.0114 4.41761 39.1193 3.85227 39.1193ZM10.4872 39.1534C10.0724 39.1534 9.69602 39.0753 9.35795 38.919C9.01989 38.7599 8.75142 38.5312 8.55256 38.233C8.35369 37.9318 8.25426 37.5682 8.25426 37.142C8.25426 36.767 8.32813 36.4631 8.47585 36.2301C8.62358 35.9943 8.82102 35.8097 9.06818 35.6761C9.31534 35.5426 9.58807 35.4432 9.88636 35.3778C10.1875 35.3097 10.4901 35.2557 10.794 35.2159C11.1918 35.1648 11.5142 35.1264 11.7614 35.1009C12.0114 35.0724 12.1932 35.0256 12.3068 34.9602C12.4233 34.8949 12.4815 34.7812 12.4815 34.6193V34.5852C12.4815 34.1648 12.3665 33.8381 12.1364 33.6051C11.9091 33.3722 11.5639 33.2557 11.1009 33.2557C10.6207 33.2557 10.2443 33.3608 9.97159 33.571C9.69886 33.7812 9.5071 34.0057 9.39631 34.2443L8.44176 33.9034C8.61222 33.5057 8.83949 33.196 9.12358 32.9744C9.41051 32.75 9.72301 32.5937 10.0611 32.5057C10.402 32.4148 10.7372 32.3693 11.0668 32.3693C11.277 32.3693 11.5185 32.3949 11.7912 32.446C12.0668 32.4943 12.3324 32.5952 12.5881 32.7486C12.8466 32.902 13.0611 33.1335 13.2315 33.4432C13.402 33.7528 13.4872 34.1676 13.4872 34.6875V39H12.4815V38.1136H12.4304C12.3622 38.2557 12.2486 38.4077 12.0895 38.5696C11.9304 38.7315 11.7188 38.8693 11.4545 38.983C11.1903 39.0966 10.8679 39.1534 10.4872 39.1534ZM10.6406 38.25C11.0384 38.25 11.3736 38.1719 11.6463 38.0156C11.9219 37.8594 12.1293 37.6577 12.2685 37.4105C12.4105 37.1634 12.4815 36.9034 12.4815 36.6307V35.7102C12.4389 35.7614 12.3452 35.8082 12.2003 35.8509C12.0582 35.8906 11.8935 35.9261 11.706 35.9574C11.5213 35.9858 11.3409 36.0114 11.1648 36.0341C10.9915 36.054 10.8509 36.071 10.7429 36.0852C10.4815 36.1193 10.2372 36.1747 10.0099 36.2514C9.78551 36.3253 9.60369 36.4375 9.46449 36.5881C9.32813 36.7358 9.25994 36.9375 9.25994 37.1932C9.25994 37.5426 9.3892 37.8068 9.64773 37.9858C9.90909 38.1619 10.2401 38.25 10.6406 38.25ZM15.3228 39V32.4545H16.3285V35.3011H16.9933L19.3455 32.4545H20.641L17.9989 35.608L20.6751 39H19.3796L17.2319 36.2386H16.3285V39H15.3228ZM23.6942 39.1534C23.2795 39.1534 22.9031 39.0753 22.565 38.919C22.2269 38.7599 21.9585 38.5312 21.7596 38.233C21.5607 37.9318 21.4613 37.5682 21.4613 37.142C21.4613 36.767 21.5352 36.4631 21.6829 36.2301C21.8306 35.9943 22.0281 35.8097 22.2752 35.6761C22.5224 35.5426 22.7951 35.4432 23.0934 35.3778C23.3945 35.3097 23.6971 35.2557 24.0011 35.2159C24.3988 35.1648 24.7212 35.1264 24.9684 35.1009C25.2184 35.0724 25.4002 35.0256 25.5138 34.9602C25.6303 34.8949 25.6886 34.7812 25.6886 34.6193V34.5852C25.6886 34.1648 25.5735 33.8381 25.3434 33.6051C25.1161 33.3722 24.771 33.2557 24.3079 33.2557C23.8278 33.2557 23.4513 33.3608 23.1786 33.571C22.9059 33.7812 22.7141 34.0057 22.6033 34.2443L21.6488 33.9034C21.8192 33.5057 22.0465 33.196 22.3306 32.9744C22.6175 32.75 22.93 32.5937 23.2681 32.5057C23.609 32.4148 23.9442 32.3693 24.2738 32.3693C24.484 32.3693 24.7255 32.3949 24.9982 32.446C25.2738 32.4943 25.5394 32.5952 25.7951 32.7486C26.0536 32.902 26.2681 33.1335 26.4386 33.4432C26.609 33.7528 26.6942 34.1676 26.6942 34.6875V39H25.6886V38.1136H25.6374C25.5692 38.2557 25.4556 38.4077 25.2965 38.5696C25.1374 38.7315 24.9258 38.8693 24.6616 38.983C24.3974 39.0966 24.0749 39.1534 23.6942 39.1534ZM23.8477 38.25C24.2454 38.25 24.5806 38.1719 24.8533 38.0156C25.1289 37.8594 25.3363 37.6577 25.4755 37.4105C25.6175 37.1634 25.6886 36.9034 25.6886 36.6307V35.7102C25.646 35.7614 25.5522 35.8082 25.4073 35.8509C25.2653 35.8906 25.1005 35.9261 24.913 35.9574C24.7283 35.9858 24.5479 36.0114 24.3718 36.0341C24.1985 36.054 24.0579 36.071 23.9499 36.0852C23.6886 36.1193 23.4442 36.1747 23.217 36.2514C22.9925 36.3253 22.8107 36.4375 22.6715 36.5881C22.5352 36.7358 22.467 36.9375 22.467 37.1932C22.467 37.5426 22.5962 37.8068 22.8548 37.9858C23.1161 38.1619 23.4471 38.25 23.8477 38.25ZM28.1207 37.3295H29.1946C29.2173 37.625 29.3509 37.8494 29.5952 38.0028C29.8423 38.1562 30.1634 38.233 30.5582 38.233C30.9616 38.233 31.3068 38.1506 31.5938 37.9858C31.8807 37.8182 32.0241 37.5483 32.0241 37.1761C32.0241 36.9574 31.9702 36.767 31.8622 36.6051C31.7543 36.4403 31.6023 36.3125 31.4062 36.2216C31.2102 36.1307 30.9787 36.0852 30.7116 36.0852H29.5866V35.1818H30.7116C31.1122 35.1818 31.4077 35.0909 31.598 34.9091C31.7912 34.7273 31.8878 34.5 31.8878 34.2273C31.8878 33.9347 31.7841 33.7003 31.5767 33.5241C31.3693 33.3452 31.0753 33.2557 30.6946 33.2557C30.3111 33.2557 29.9915 33.3423 29.7358 33.5156C29.4801 33.6861 29.3452 33.9062 29.331 34.1761H28.2741C28.2855 33.8239 28.3935 33.5128 28.598 33.2429C28.8026 32.9702 29.081 32.7571 29.4332 32.6037C29.7855 32.4474 30.1889 32.3693 30.6435 32.3693C31.1037 32.3693 31.5028 32.4503 31.8409 32.6122C32.1818 32.7713 32.4446 32.9886 32.6293 33.2642C32.8168 33.5369 32.9105 33.8466 32.9105 34.1932C32.9105 34.5625 32.8068 34.8608 32.5994 35.0881C32.392 35.3153 32.1321 35.4773 31.8196 35.5739V35.642C32.0668 35.6591 32.2812 35.7386 32.4631 35.8807C32.6477 36.0199 32.7912 36.2031 32.8935 36.4304C32.9957 36.6548 33.0469 36.9034 33.0469 37.1761C33.0469 37.5739 32.9403 37.9205 32.7273 38.2159C32.5142 38.5085 32.2216 38.7358 31.8494 38.8977C31.4773 39.0568 31.0526 39.1364 30.5753 39.1364C30.1122 39.1364 29.6974 39.0611 29.331 38.9105C28.9645 38.7571 28.6733 38.5455 28.4574 38.2756C28.2443 38.0028 28.1321 37.6875 28.1207 37.3295ZM35.3288 34.8239H37.2038C37.9709 34.8239 38.5575 35.0185 38.9638 35.4077C39.37 35.7969 39.5732 36.2898 39.5732 36.8864C39.5732 37.2784 39.4822 37.6349 39.3004 37.956C39.1186 38.2741 38.8516 38.5284 38.4993 38.7188C38.147 38.9062 37.7152 39 37.2038 39H34.4595V32.4545H35.4652V38.0625H37.2038C37.6016 38.0625 37.9283 37.9574 38.1839 37.7472C38.4396 37.5369 38.5675 37.267 38.5675 36.9375C38.5675 36.5909 38.4396 36.3082 38.1839 36.0895C37.9283 35.8707 37.6016 35.7614 37.2038 35.7614H35.3288V34.8239ZM40.6129 39V32.4545H41.6186V39H40.6129Z" fill="black"/>
</svg>
