<svg width="128" height="29" viewBox="0 0 128 29" fill="none" xmlns="http://www.w3.org/2000/svg">
<path d="M5.09659 23H0.5625L6.4517 5.54545H12.0682L17.9574 23H13.4233L9.32386 9.94318H9.1875L5.09659 23ZM4.49148 16.1307H13.9688V19.3352H4.49148V16.1307ZM19.8366 23V5.54545H27.1151C28.4219 5.54545 29.5156 5.73011 30.3963 6.09943C31.2827 6.46875 31.9474 6.98579 32.3906 7.65057C32.8395 8.31534 33.0639 9.08523 33.0639 9.96023C33.0639 10.625 32.9247 11.2188 32.6463 11.7415C32.3679 12.2585 31.9844 12.6875 31.4957 13.0284C31.0071 13.3693 30.4418 13.608 29.7997 13.7443V13.9148C30.5043 13.9489 31.1548 14.1392 31.7514 14.4858C32.3537 14.8324 32.8366 15.3153 33.2003 15.9347C33.5639 16.5483 33.7457 17.2756 33.7457 18.1165C33.7457 19.054 33.5071 19.892 33.0298 20.6307C32.5526 21.3636 31.8622 21.9432 30.9588 22.3693C30.0554 22.7898 28.9588 23 27.669 23H19.8366ZM24.0554 19.5994H26.6634C27.5781 19.5994 28.2514 19.4261 28.6832 19.0795C29.1207 18.733 29.3395 18.25 29.3395 17.6307C29.3395 17.1818 29.2344 16.7955 29.0241 16.4716C28.8139 16.142 28.5156 15.8892 28.1293 15.7131C27.7429 15.5312 27.2798 15.4403 26.7401 15.4403H24.0554V19.5994ZM24.0554 12.7216H26.3906C26.8509 12.7216 27.2599 12.6449 27.6179 12.4915C27.9759 12.3381 28.2543 12.1165 28.4531 11.8267C28.6577 11.5369 28.7599 11.1875 28.7599 10.7784C28.7599 10.1932 28.5526 9.73295 28.1378 9.39773C27.723 9.0625 27.1634 8.89489 26.4588 8.89489H24.0554V12.7216ZM35.2031 8.97159V5.54545H49.956V8.97159H44.6634V23H40.5043V8.97159H35.2031Z" fill="#E42525"/>
<path d="M73.321 5.54545H78.5455L82.9773 16.3523H83.1818L87.6136 5.54545H92.8381V23H88.7301V12.2784H88.5852L84.392 22.8892H81.767L77.5739 12.2188H77.429V23H73.321V5.54545ZM95.4695 5.54545H99.6797V15.6023H99.8246L106.694 5.54545H110.325V23H106.106V12.9261H105.995L99.0405 23H95.4695V5.54545ZM112.977 23V5.54545H120.188C121.494 5.54545 122.622 5.80114 123.571 6.3125C124.526 6.81818 125.261 7.52557 125.778 8.43466C126.295 9.33807 126.554 10.3892 126.554 11.5881C126.554 12.7926 126.29 13.8466 125.761 14.75C125.239 15.6477 124.491 16.3437 123.52 16.8381C122.548 17.3324 121.395 17.5795 120.06 17.5795H115.611V14.2557H119.276C119.912 14.2557 120.443 14.1449 120.869 13.9233C121.301 13.7017 121.628 13.392 121.849 12.9943C122.071 12.5909 122.182 12.1222 122.182 11.5881C122.182 11.0483 122.071 10.5824 121.849 10.1903C121.628 9.79261 121.301 9.4858 120.869 9.26989C120.438 9.05398 119.906 8.94602 119.276 8.94602H117.196V23H112.977Z" fill="#E42525"/>
<path d="M54.15 11.875H68.85M54.15 17.125H68.85M53.625 14.5C53.625 15.5342 53.8287 16.5582 54.2244 17.5136C54.6202 18.4691 55.2003 19.3372 55.9315 20.0685C56.6628 20.7997 57.5309 21.3798 58.4864 21.7756C59.4418 22.1713 60.4658 22.375 61.5 22.375C62.5342 22.375 63.5582 22.1713 64.5136 21.7756C65.4691 21.3798 66.3372 20.7997 67.0685 20.0685C67.7997 19.3372 68.3798 18.4691 68.7756 17.5136C69.1713 16.5582 69.375 15.5342 69.375 14.5C69.375 12.4114 68.5453 10.4084 67.0685 8.93153C65.5916 7.45469 63.5886 6.625 61.5 6.625C59.4114 6.625 57.4084 7.45469 55.9315 8.93153C54.4547 10.4084 53.625 12.4114 53.625 14.5Z" stroke="#E42525" stroke-width="2" stroke-linecap="round" stroke-linejoin="round"/>
<path d="M61.0625 6.625C59.5884 8.98716 58.8069 11.7156 58.8069 14.5C58.8069 17.2844 59.5884 20.0128 61.0625 22.375M61.9375 6.625C63.4116 8.98716 64.1931 11.7156 64.1931 14.5C64.1931 17.2844 63.4116 20.0128 61.9375 22.375" stroke="#E42525" stroke-width="2" stroke-linecap="round" stroke-linejoin="round"/>
</svg>
